<mxfile host="Electron" modified="2023-12-28T13:05:13.777Z" agent="Mozilla/5.0 (Windows NT 10.0; Win64; x64) AppleWebKit/537.36 (KHTML, like Gecko) draw.io/22.1.11 Chrome/114.0.5735.289 Electron/25.9.8 Safari/537.36" etag="YMR0X89-gyXA-xkNMnOD" version="22.1.11" type="device">
  <diagram name="第 1 页" id="E-s6_gqIiAGX__EsBkvZ">
    <mxGraphModel dx="1434" dy="844" grid="1" gridSize="10" guides="1" tooltips="1" connect="1" arrows="1" fold="1" page="1" pageScale="1" pageWidth="827" pageHeight="1169" math="0" shadow="0">
      <root>
        <mxCell id="0" />
        <mxCell id="1" parent="0" />
        <mxCell id="5R2p9zqzRd_EcbVmf_YA-26" style="rounded=0;orthogonalLoop=1;jettySize=auto;html=1;exitX=1;exitY=0.25;exitDx=0;exitDy=0;entryX=0;entryY=0.5;entryDx=0;entryDy=0;endArrow=open;endFill=0;" edge="1" parent="1" source="5R2p9zqzRd_EcbVmf_YA-1" target="5R2p9zqzRd_EcbVmf_YA-10">
          <mxGeometry relative="1" as="geometry" />
        </mxCell>
        <mxCell id="5R2p9zqzRd_EcbVmf_YA-1" value="GameEventSystem" style="swimlane;fontStyle=1;align=center;verticalAlign=top;childLayout=stackLayout;horizontal=1;startSize=26;horizontalStack=0;resizeParent=1;resizeParentMax=0;resizeLast=0;collapsible=1;marginBottom=0;whiteSpace=wrap;html=1;" vertex="1" parent="1">
          <mxGeometry y="357" width="250" height="86" as="geometry" />
        </mxCell>
        <mxCell id="5R2p9zqzRd_EcbVmf_YA-3" value="" style="line;strokeWidth=1;fillColor=none;align=left;verticalAlign=middle;spacingTop=-1;spacingLeft=3;spacingRight=3;rotatable=0;labelPosition=right;points=[];portConstraint=eastwest;strokeColor=inherit;" vertex="1" parent="5R2p9zqzRd_EcbVmf_YA-1">
          <mxGeometry y="26" width="250" height="8" as="geometry" />
        </mxCell>
        <mxCell id="5R2p9zqzRd_EcbVmf_YA-4" value="+RegisterObserver(GameEvent, Observer)" style="text;strokeColor=none;fillColor=none;align=left;verticalAlign=top;spacingLeft=4;spacingRight=4;overflow=hidden;rotatable=0;points=[[0,0.5],[1,0.5]];portConstraint=eastwest;whiteSpace=wrap;html=1;" vertex="1" parent="5R2p9zqzRd_EcbVmf_YA-1">
          <mxGeometry y="34" width="250" height="26" as="geometry" />
        </mxCell>
        <mxCell id="5R2p9zqzRd_EcbVmf_YA-5" value="+NotifyGameEvent(GameEvent, Param)" style="text;strokeColor=none;fillColor=none;align=left;verticalAlign=top;spacingLeft=4;spacingRight=4;overflow=hidden;rotatable=0;points=[[0,0.5],[1,0.5]];portConstraint=eastwest;whiteSpace=wrap;html=1;" vertex="1" parent="5R2p9zqzRd_EcbVmf_YA-1">
          <mxGeometry y="60" width="250" height="26" as="geometry" />
        </mxCell>
        <mxCell id="5R2p9zqzRd_EcbVmf_YA-31" style="edgeStyle=none;rounded=0;orthogonalLoop=1;jettySize=auto;html=1;exitX=1;exitY=0.5;exitDx=0;exitDy=0;endArrow=open;endFill=0;" edge="1" parent="1" source="5R2p9zqzRd_EcbVmf_YA-6" target="5R2p9zqzRd_EcbVmf_YA-20">
          <mxGeometry relative="1" as="geometry" />
        </mxCell>
        <mxCell id="5R2p9zqzRd_EcbVmf_YA-6" value="SodlierKilledSubject" style="swimlane;fontStyle=1;align=center;verticalAlign=top;childLayout=stackLayout;horizontal=1;startSize=26;horizontalStack=0;resizeParent=1;resizeParentMax=0;resizeLast=0;collapsible=1;marginBottom=0;whiteSpace=wrap;html=1;" vertex="1" parent="1">
          <mxGeometry x="330" y="386" width="160" height="34" as="geometry" />
        </mxCell>
        <mxCell id="5R2p9zqzRd_EcbVmf_YA-8" value="" style="line;strokeWidth=1;fillColor=none;align=left;verticalAlign=middle;spacingTop=-1;spacingLeft=3;spacingRight=3;rotatable=0;labelPosition=right;points=[];portConstraint=eastwest;strokeColor=inherit;" vertex="1" parent="5R2p9zqzRd_EcbVmf_YA-6">
          <mxGeometry y="26" width="160" height="8" as="geometry" />
        </mxCell>
        <mxCell id="5R2p9zqzRd_EcbVmf_YA-30" style="edgeStyle=none;rounded=0;orthogonalLoop=1;jettySize=auto;html=1;exitX=1;exitY=0.5;exitDx=0;exitDy=0;endArrow=open;endFill=0;" edge="1" parent="1" source="5R2p9zqzRd_EcbVmf_YA-10" target="5R2p9zqzRd_EcbVmf_YA-18">
          <mxGeometry relative="1" as="geometry" />
        </mxCell>
        <mxCell id="5R2p9zqzRd_EcbVmf_YA-10" value="EnemyKilledSubject" style="swimlane;fontStyle=1;align=center;verticalAlign=top;childLayout=stackLayout;horizontal=1;startSize=26;horizontalStack=0;resizeParent=1;resizeParentMax=0;resizeLast=0;collapsible=1;marginBottom=0;whiteSpace=wrap;html=1;" vertex="1" parent="1">
          <mxGeometry x="330" y="326" width="160" height="34" as="geometry" />
        </mxCell>
        <mxCell id="5R2p9zqzRd_EcbVmf_YA-11" value="" style="line;strokeWidth=1;fillColor=none;align=left;verticalAlign=middle;spacingTop=-1;spacingLeft=3;spacingRight=3;rotatable=0;labelPosition=right;points=[];portConstraint=eastwest;strokeColor=inherit;" vertex="1" parent="5R2p9zqzRd_EcbVmf_YA-10">
          <mxGeometry y="26" width="160" height="8" as="geometry" />
        </mxCell>
        <mxCell id="5R2p9zqzRd_EcbVmf_YA-32" style="edgeStyle=none;rounded=0;orthogonalLoop=1;jettySize=auto;html=1;exitX=1;exitY=0.5;exitDx=0;exitDy=0;endArrow=open;endFill=0;" edge="1" parent="1" source="5R2p9zqzRd_EcbVmf_YA-16" target="5R2p9zqzRd_EcbVmf_YA-22">
          <mxGeometry relative="1" as="geometry" />
        </mxCell>
        <mxCell id="5R2p9zqzRd_EcbVmf_YA-16" value="NewStageSubject" style="swimlane;fontStyle=1;align=center;verticalAlign=top;childLayout=stackLayout;horizontal=1;startSize=26;horizontalStack=0;resizeParent=1;resizeParentMax=0;resizeLast=0;collapsible=1;marginBottom=0;whiteSpace=wrap;html=1;" vertex="1" parent="1">
          <mxGeometry x="330" y="446" width="160" height="34" as="geometry" />
        </mxCell>
        <mxCell id="5R2p9zqzRd_EcbVmf_YA-17" value="" style="line;strokeWidth=1;fillColor=none;align=left;verticalAlign=middle;spacingTop=-1;spacingLeft=3;spacingRight=3;rotatable=0;labelPosition=right;points=[];portConstraint=eastwest;strokeColor=inherit;" vertex="1" parent="5R2p9zqzRd_EcbVmf_YA-16">
          <mxGeometry y="26" width="160" height="8" as="geometry" />
        </mxCell>
        <mxCell id="5R2p9zqzRd_EcbVmf_YA-33" style="edgeStyle=none;rounded=0;orthogonalLoop=1;jettySize=auto;html=1;exitX=1;exitY=0.5;exitDx=0;exitDy=0;entryX=0;entryY=0;entryDx=0;entryDy=0;endArrow=open;endFill=0;" edge="1" parent="1" source="5R2p9zqzRd_EcbVmf_YA-18" target="5R2p9zqzRd_EcbVmf_YA-24">
          <mxGeometry relative="1" as="geometry" />
        </mxCell>
        <mxCell id="5R2p9zqzRd_EcbVmf_YA-18" value="EnemyKilledObserverAchievement" style="swimlane;fontStyle=1;align=center;verticalAlign=top;childLayout=stackLayout;horizontal=1;startSize=26;horizontalStack=0;resizeParent=1;resizeParentMax=0;resizeLast=0;collapsible=1;marginBottom=0;whiteSpace=wrap;html=1;" vertex="1" parent="1">
          <mxGeometry x="560" y="326" width="250" height="34" as="geometry" />
        </mxCell>
        <mxCell id="5R2p9zqzRd_EcbVmf_YA-19" value="" style="line;strokeWidth=1;fillColor=none;align=left;verticalAlign=middle;spacingTop=-1;spacingLeft=3;spacingRight=3;rotatable=0;labelPosition=right;points=[];portConstraint=eastwest;strokeColor=inherit;" vertex="1" parent="5R2p9zqzRd_EcbVmf_YA-18">
          <mxGeometry y="26" width="250" height="8" as="geometry" />
        </mxCell>
        <mxCell id="5R2p9zqzRd_EcbVmf_YA-35" style="edgeStyle=none;rounded=0;orthogonalLoop=1;jettySize=auto;html=1;exitX=1;exitY=0.5;exitDx=0;exitDy=0;endArrow=open;endFill=0;" edge="1" parent="1" source="5R2p9zqzRd_EcbVmf_YA-20" target="5R2p9zqzRd_EcbVmf_YA-24">
          <mxGeometry relative="1" as="geometry" />
        </mxCell>
        <mxCell id="5R2p9zqzRd_EcbVmf_YA-20" value="SoldierKilledObserverAchievement" style="swimlane;fontStyle=1;align=center;verticalAlign=top;childLayout=stackLayout;horizontal=1;startSize=26;horizontalStack=0;resizeParent=1;resizeParentMax=0;resizeLast=0;collapsible=1;marginBottom=0;whiteSpace=wrap;html=1;" vertex="1" parent="1">
          <mxGeometry x="560" y="386" width="250" height="34" as="geometry" />
        </mxCell>
        <mxCell id="5R2p9zqzRd_EcbVmf_YA-21" value="" style="line;strokeWidth=1;fillColor=none;align=left;verticalAlign=middle;spacingTop=-1;spacingLeft=3;spacingRight=3;rotatable=0;labelPosition=right;points=[];portConstraint=eastwest;strokeColor=inherit;" vertex="1" parent="5R2p9zqzRd_EcbVmf_YA-20">
          <mxGeometry y="26" width="250" height="8" as="geometry" />
        </mxCell>
        <mxCell id="5R2p9zqzRd_EcbVmf_YA-34" style="edgeStyle=none;rounded=0;orthogonalLoop=1;jettySize=auto;html=1;exitX=1;exitY=0.5;exitDx=0;exitDy=0;entryX=0;entryY=1;entryDx=0;entryDy=0;endArrow=open;endFill=0;" edge="1" parent="1" source="5R2p9zqzRd_EcbVmf_YA-22" target="5R2p9zqzRd_EcbVmf_YA-24">
          <mxGeometry relative="1" as="geometry" />
        </mxCell>
        <mxCell id="5R2p9zqzRd_EcbVmf_YA-22" value="NewStageObserverAchievement" style="swimlane;fontStyle=1;align=center;verticalAlign=top;childLayout=stackLayout;horizontal=1;startSize=26;horizontalStack=0;resizeParent=1;resizeParentMax=0;resizeLast=0;collapsible=1;marginBottom=0;whiteSpace=wrap;html=1;" vertex="1" parent="1">
          <mxGeometry x="560" y="446" width="250" height="34" as="geometry" />
        </mxCell>
        <mxCell id="5R2p9zqzRd_EcbVmf_YA-23" value="" style="line;strokeWidth=1;fillColor=none;align=left;verticalAlign=middle;spacingTop=-1;spacingLeft=3;spacingRight=3;rotatable=0;labelPosition=right;points=[];portConstraint=eastwest;strokeColor=inherit;" vertex="1" parent="5R2p9zqzRd_EcbVmf_YA-22">
          <mxGeometry y="26" width="250" height="8" as="geometry" />
        </mxCell>
        <mxCell id="5R2p9zqzRd_EcbVmf_YA-24" value="AchievementSystem" style="swimlane;fontStyle=1;align=center;verticalAlign=top;childLayout=stackLayout;horizontal=1;startSize=26;horizontalStack=0;resizeParent=1;resizeParentMax=0;resizeLast=0;collapsible=1;marginBottom=0;whiteSpace=wrap;html=1;" vertex="1" parent="1">
          <mxGeometry x="910" y="386" width="190" height="34" as="geometry" />
        </mxCell>
        <mxCell id="5R2p9zqzRd_EcbVmf_YA-25" value="" style="line;strokeWidth=1;fillColor=none;align=left;verticalAlign=middle;spacingTop=-1;spacingLeft=3;spacingRight=3;rotatable=0;labelPosition=right;points=[];portConstraint=eastwest;strokeColor=inherit;" vertex="1" parent="5R2p9zqzRd_EcbVmf_YA-24">
          <mxGeometry y="26" width="190" height="8" as="geometry" />
        </mxCell>
        <mxCell id="5R2p9zqzRd_EcbVmf_YA-28" style="edgeStyle=none;rounded=0;orthogonalLoop=1;jettySize=auto;html=1;exitX=1;exitY=0.5;exitDx=0;exitDy=0;endArrow=open;endFill=0;" edge="1" parent="1" source="5R2p9zqzRd_EcbVmf_YA-4" target="5R2p9zqzRd_EcbVmf_YA-6">
          <mxGeometry relative="1" as="geometry" />
        </mxCell>
        <mxCell id="5R2p9zqzRd_EcbVmf_YA-29" style="edgeStyle=none;rounded=0;orthogonalLoop=1;jettySize=auto;html=1;exitX=1;exitY=0.5;exitDx=0;exitDy=0;entryX=0;entryY=0.25;entryDx=0;entryDy=0;endArrow=open;endFill=0;" edge="1" parent="1" source="5R2p9zqzRd_EcbVmf_YA-5" target="5R2p9zqzRd_EcbVmf_YA-16">
          <mxGeometry relative="1" as="geometry" />
        </mxCell>
      </root>
    </mxGraphModel>
  </diagram>
</mxfile>
